<?xml version="1.0" standalone="no"?>
<!DOCTYPE svg PUBLIC "-//W3C//DTD SVG 20010904//EN"
 "http://www.w3.org/TR/2001/REC-SVG-20010904/DTD/svg10.dtd">
<svg version="1.0" xmlns="http://www.w3.org/2000/svg"
 width="165.000000pt" height="165.000000pt" viewBox="0 0 165.000000 165.000000"
 preserveAspectRatio="xMidYMid meet">
<metadata>
Created by potrace 1.11, written by Peter Selinger 2001-2013
</metadata>
<g transform="translate(0.000000,165.000000) scale(0.100000,-0.100000)"
fill="#000000" stroke="none">
<path d="M553 1421 c-5 -3 -27 -28 -50 -54 -31 -36 -45 -63 -54 -105 -6 -31
-18 -66 -25 -77 -8 -11 -14 -26 -14 -35 0 -26 -44 -70 -75 -76 -16 -3 -63 -17
-104 -32 -62 -23 -85 -38 -142 -96 -66 -65 -69 -71 -69 -116 0 -58 48 -160 88
-186 15 -9 36 -25 47 -35 11 -10 36 -32 55 -49 19 -17 52 -39 73 -48 20 -9 37
-20 37 -24 0 -5 6 -8 14 -8 8 0 39 -13 69 -29 30 -16 72 -34 93 -41 22 -7 62
-23 89 -35 74 -32 236 -85 276 -89 19 -2 45 -7 59 -10 14 -3 36 -8 50 -11 14
-2 43 -9 65 -15 68 -18 322 -24 390 -9 33 7 62 13 65 14 3 0 15 6 26 13 12 6
24 9 26 6 7 -7 78 76 78 91 0 7 7 15 15 19 12 4 15 24 15 88 0 75 -4 90 -35
153 -19 39 -35 73 -35 77 0 5 -28 36 -63 70 -34 35 -70 76 -80 91 -10 15 -22
25 -26 23 -20 -13 -56 56 -60 114 -3 58 -18 114 -42 159 -10 20 -19 39 -19 44
0 26 -129 177 -152 177 -5 0 -18 10 -30 22 -35 35 -127 37 -198 5 -93 -41
-110 -47 -140 -47 -16 0 -32 5 -35 10 -3 6 -16 10 -28 10 -13 0 -33 7 -46 17
-26 18 -95 33 -108 24z"/>
</g>
</svg>
